<svg id='PowerNet' xmlns="http://www.w3.org/2000/svg" width="1569.951" height="890.695" viewBox="0 0 1569.951 890.695">
  <g id="EnergieStroom" transform="translate(-177.024 -202.305)">
    <g id="Group_199" data-name="Group 199" transform="translate(-0.941 2.305)">
      <g id="Molen" transform="translate(1605 356.2)">
        <g id="Layer_1" data-name="Layer 1" transform="translate(40.129 103.762)">
          <path id="Path_29" data-name="Path 29" d="M85.49,142.273l.844-8.2" transform="translate(-59.084 -134.016)" fill="none" stroke="#265d62" stroke-linecap="round" stroke-miterlimit="10" stroke-width="8" />
          <path id="Path_30" data-name="Path 30" d="M76.52,222.5l3.07-29.975" transform="translate(-56.997 -147.614)" fill="none" stroke="#265d62" stroke-linecap="round" stroke-miterlimit="10" stroke-width="8" />
          <path id="Path_31" data-name="Path 31" d="M110.87,192.86l3.346,29.8" transform="translate(-64.987 -147.691)" fill="none" stroke="#265d62" stroke-linecap="round" stroke-miterlimit="10" stroke-width="8" />
          <path id="Path_32" data-name="Path 32" d="M104.27,134l3.192,28.494" transform="translate(-63.452 -134)" fill="none" stroke="#265d62" stroke-linecap="round" stroke-miterlimit="10" stroke-width="8" />
          <line id="Line_37" data-name="Line 37" x1="69.212" y2="0.092" transform="translate(0 77.745)" fill="none" stroke="#265d62" stroke-linecap="round" stroke-miterlimit="10" stroke-width="8" />
          <path id="Path_33" data-name="Path 33" d="M83.33,172.033l.169-2.663" transform="translate(-58.581 -142.227)" fill="none" stroke="#265d62" stroke-linecap="round" stroke-miterlimit="10" stroke-width="8" />
        </g>
        <g id="Layer_2" data-name="Layer 2" transform="translate(4 4)">
          <ellipse id="Ellipse_20" data-name="Ellipse 20" cx="10.644" cy="10.467" rx="10.644" ry="10.467" transform="translate(58.292 65.666)" fill="#fff" stroke="#265d62" stroke-miterlimit="10" stroke-width="8" />
          <path id="Path_34" data-name="Path 34" d="M70.28,115.012,10.669,146.168,4,135.263,54.487,107.99" transform="translate(-4 -28.188)" fill="none" stroke="#265d62" stroke-linecap="round" stroke-linejoin="round" stroke-width="8" />
          <path id="Path_35" data-name="Path 35" d="M36,162.3s15.049,20.021,59.857,15.241" transform="translate(-11.443 -40.821)" fill="none" stroke="#265d62" stroke-linecap="round" stroke-miterlimit="10" stroke-width="8" />
          <path id="Path_36" data-name="Path 36" d="M82.814,72.322,81.74,5.067,94.479,4l1.7,57.363" transform="translate(-22.082 -4)" fill="none" stroke="#265d62" stroke-linecap="round" stroke-linejoin="round" stroke-width="8" />
          <path id="Path_37" data-name="Path 37" d="M54.913,24.2s-24.649,4.451-40.5,46.658" transform="translate(-6.421 -8.699)" fill="none" stroke="#265d62" stroke-linecap="round" stroke-miterlimit="10" stroke-width="8" />
          <path id="Path_38" data-name="Path 38" d="M108.43,100.74l54.777,39.038-6.7,10.882L109.328,118" transform="translate(-28.29 -26.502)" fill="none" stroke="#265d62" stroke-linecap="round" stroke-linejoin="round" stroke-width="8" />
          <path id="Path_39" data-name="Path 39" d="M169.212,110.462S180.247,87.984,155.69,50.19" transform="translate(-39.283 -14.744)" fill="none" stroke="#265d62" stroke-linecap="round" stroke-miterlimit="10" stroke-width="8" />
          <path id="Path_40" data-name="Path 40" d="M67.19,153.93s9.032,4.543,17.788,2.924" transform="translate(-18.698 -38.874)" fill="none" stroke="#265d62" stroke-linecap="round" stroke-miterlimit="10" stroke-width="8" />
          <path id="Path_41" data-name="Path 41" d="M58.508,54.62s-8.733,5.1-12.148,13.337" transform="translate(-13.853 -15.774)" fill="none" stroke="#265d62" stroke-linecap="round" stroke-miterlimit="10" stroke-width="8" />
          <path id="Path_42" data-name="Path 42" d="M150.59,102.689s1.143-10.015-3.4-17.689" transform="translate(-37.306 -22.841)" fill="none" stroke="#265d62" stroke-linecap="round" stroke-miterlimit="10" stroke-width="8" />
        </g>
      </g>
      <g id="Group_120" data-name="Group 120">
        <g id="House" transform="translate(346.853 782.722)">
          <ellipse id="Ellipse_18" data-name="Ellipse 18" cx="36.434" cy="36.86" rx="36.434" ry="36.86" transform="translate(100.451 10.509)" fill="#fbbe3d" />
          <path id="Path_24" data-name="Path 24" d="M78.642,47.408A36.308,36.308,0,0,0,6.3,42.973L0,43.036a13.649,13.649,0,0,0,5.112-4.82c1.945-3.261-2.363-7.75-2.363-7.75S-.071,24.646,1.693,22s5.2-2.024,7.4-1.756,7.482-.095,8.963-1.15,2.646-4.844,3.355-8.986S22.99,3.846,25.959,2.79s7.159,3.087,7.159,3.087,5.828,4.371,8.742,3.875,6.521-4.726,6.521-4.726S51.643-.486,55.7.089s4.726,8.459,4.726,8.459,1.575,6.3,4.056,7.144,5.812.354,9.16-.528,6.38-.189,7.522.756,1.5,5.734-.977,8.813S78.8,32.4,78.8,32.4a11.026,11.026,0,0,0,7.813,5.907c5.749,1.079,6.364,4.718,6.364,4.718s-1.237,5.324-5.907,6.647a10.514,10.514,0,0,0-6.435,5.112s-2.465,5.08,1.315,9.254a10.071,10.071,0,0,1,2.827,8.427s-3.15,3-10.31,2.473-6.521.7-8.664,1.764-3.5,11.223-3.5,11.223l-5.56-7.191a36.316,36.316,0,0,0,21.9-33.331Z" transform="translate(94.417 -0.047)" fill="#f7931e" />
          <path id="Path_25" data-name="Path 25" d="M130,172.375h73.325V117.92L130,119.023Z" transform="translate(-118.32 -25.083)" fill="#5d372e" />
          <path id="Path_26" data-name="Path 26" d="M81.766,53.67,34.88,104.431l10.4-.158v54.455h62.4V103.375h12.515Z" transform="translate(39.729 -11.436)" fill="#9a6756" />
          <path id="Path_27" data-name="Path 27" d="M205.165,53.67l-46.886,50.761L83.67,105.518l42.924-51.186,51.69-.433Z" transform="translate(-83.67 -11.436)" fill="#6c9c9c" />
          <path id="Path_28" data-name="Path 28" d="M99.29,88.993l5.214-6.23,21.265-.559,6.191-8.388H112.01l5.608-6.687h20.43l10.837-12.861,7.963-.071L146.766,67.129h16l9.254-13.058L180.476,54,169.5,67.129l24.928.079L189.7,72.28l-25.912-.26L154.4,82.732l26.408-.788-4.348,4.726L150.7,87.812,138.04,104.887l-8.758.15,14.712-17.17-17.713.929-12.294,16.4-8.333.118,13.885-16.319ZM149.7,82.07l7.529-9.254h-16.39l-7.663,9.254Z" transform="translate(-85.231 -11.506)" fill="#3b7076" />
          <rect id="Rectangle_149" data-name="Rectangle 149" width="29.874" height="21.942" transform="translate(33.828 108.455)" fill="#9a6756" />
          <rect id="Rectangle_150" data-name="Rectangle 150" width="18.509" height="32.748" transform="translate(107.854 114.543)" fill="#5d372e" />
          <rect id="Rectangle_151" data-name="Rectangle 151" width="21.045" height="4.615" transform="translate(126.362 91.939)" fill="#5d372e" />
          <ellipse id="Ellipse_19" data-name="Ellipse 19" cx="7.191" cy="7.191" rx="7.191" ry="7.191" transform="translate(112.879 65.94)" fill="#5d372e" />
        </g>
        <g id="House-2" data-name="House" transform="translate(262.16 824.956)">
          <path id="Path_25-2" data-name="Path 25" d="M130,172.375h73.325V117.92L130,119.023Z" transform="translate(-118.32 -67.317)" fill="#5d372e" />
          <path id="Path_26-2" data-name="Path 26" d="M81.766,53.67,34.88,104.431l10.4-.158v54.455h62.4V103.375h12.515Z" transform="translate(39.729 -53.67)" fill="#9a6756" />
          <path id="Path_27-2" data-name="Path 27" d="M205.165,53.67l-46.886,50.761L83.67,105.518l42.924-51.186,51.69-.433Z" transform="translate(-83.67 -53.67)" fill="#6c9c9c" />
          <path id="Path_28-2" data-name="Path 28" d="M99.29,88.993l5.214-6.23,21.265-.559,6.191-8.388H112.01l5.608-6.687h20.43l10.837-12.861,7.963-.071L146.766,67.129h16l9.254-13.058L180.476,54,169.5,67.129l24.928.079L189.7,72.28l-25.912-.26L154.4,82.732l26.408-.788-4.348,4.726L150.7,87.812,138.04,104.887l-8.758.15,14.712-17.17-17.713.929-12.294,16.4-8.333.118,13.885-16.319ZM149.7,82.07l7.529-9.254h-16.39l-7.663,9.254Z" transform="translate(-85.231 -53.74)" fill="#3b7076" />
          <rect id="Rectangle_149-2" data-name="Rectangle 149" width="29.874" height="21.942" transform="translate(33.828 66.221)" fill="#9a6756" />
          <rect id="Rectangle_150-2" data-name="Rectangle 150" width="18.509" height="32.748" transform="translate(107.854 72.309)" fill="#5d372e" />
          <rect id="Rectangle_151-2" data-name="Rectangle 151" width="21.045" height="4.615" transform="translate(126.363 49.705)" fill="#5d372e" />
          <ellipse id="Ellipse_19-2" data-name="Ellipse 19" cx="7.191" cy="7.191" rx="7.191" ry="7.191" transform="translate(112.879 23.707)" fill="#5d372e" />
        </g>
        <g id="House-3" data-name="House" transform="translate(177.965 824.956)">
          <path id="Path_25-3" data-name="Path 25" d="M130,172.375h73.325V117.92L130,119.023Z" transform="translate(-118.32 -67.317)" fill="#5d372e" />
          <path id="Path_26-3" data-name="Path 26" d="M81.766,53.67,34.88,104.431l10.4-.158v54.455h62.4V103.375h12.515Z" transform="translate(39.729 -53.67)" fill="#9a6756" />
          <path id="Path_27-3" data-name="Path 27" d="M205.165,53.67l-46.886,50.761L83.67,105.518l42.924-51.186,51.69-.433Z" transform="translate(-83.67 -53.67)" fill="#6c9c9c" />
          <path id="Path_28-3" data-name="Path 28" d="M99.29,88.993l5.214-6.23,21.265-.559,6.191-8.388H112.01l5.608-6.687h20.43l10.837-12.861,7.963-.071L146.766,67.129h16l9.254-13.058L180.476,54,169.5,67.129l24.928.079L189.7,72.28l-25.912-.26L154.4,82.732l26.408-.788-4.348,4.726L150.7,87.812,138.04,104.887l-8.758.15,14.712-17.17-17.713.929-12.294,16.4-8.333.118,13.885-16.319ZM149.7,82.07l7.529-9.254h-16.39l-7.663,9.254Z" transform="translate(-85.231 -53.74)" fill="#3b7076" />
          <rect id="Rectangle_149-3" data-name="Rectangle 149" width="29.874" height="21.942" transform="translate(33.827 66.221)" fill="#9a6756" />
          <rect id="Rectangle_150-3" data-name="Rectangle 150" width="18.509" height="32.748" transform="translate(107.854 72.309)" fill="#5d372e" />
          <rect id="Rectangle_151-3" data-name="Rectangle 151" width="21.045" height="4.615" transform="translate(126.362 49.705)" fill="#5d372e" />
          <ellipse id="Ellipse_19-3" data-name="Ellipse 19" cx="7.191" cy="7.191" rx="7.191" ry="7.191" transform="translate(112.879 23.707)" fill="#5d372e" />
        </g>
      </g>
      <g id="House-4" data-name="House" transform="translate(656.689 299.312)">
        <path id="Path_50" data-name="Path 50" d="M7.723,0h47L62,213H0Z" transform="translate(-39.689 -72.312)" fill="#9a6756" />
        <path id="Path_53" data-name="Path 53" d="M7.723,0h47L62,213H0Z" transform="translate(122.035 -72.482)" fill="#9a6756" />
        <path id="Path_51" data-name="Path 51" d="M8.517,0H60.347l8.022,213H0Z" transform="translate(-56.689 -72.312)" fill="#5d372e" />
        <path id="Path_52" data-name="Path 52" d="M7.679,0H54.413l7.233,213H0Z" transform="translate(105.035 -72.482)" fill="#5d372e" />
        <path id="Path_25-4" data-name="Path 25" d="M130,191.8H259.451V117.92L130,119.416Z" transform="translate(-118.32 -51.27)" fill="#5d372e" />
        <path id="Path_26-4" data-name="Path 26" d="M89.017,53.67l-54.137,67.9,12-.211V194.2h72.053V120.159h14.451Z" transform="translate(93.443 -53.67)" fill="#9a6756" />
        <path id="Path_27-4" data-name="Path 27" d="M267.637,53.9l-54.525,67.919H81.774l45.144-67.482,52.063-.437Z" transform="translate(-84.002 -53.67)" fill="#6c9c9c" />
        <path id="Path_28-4" data-name="Path 28" d="M99.29,84.964l3.848-5.513,15.695-.495,4.569-7.422H108.678l4.139-5.917H127.9l8-11.381,5.877-.063-7.44,11.444h11.806l6.83-11.555L159.209,54l-8.1,11.618,18.4.07-3.488,4.488-19.124-.23-6.929,9.478,19.491-.7-3.209,4.182-19.014,1.011-9.341,15.109-6.464.132,10.858-15.193-13.073.822L110.137,99.3l-6.15.1,10.248-14.44Zm37.2-6.126,5.557-8.189h-12.1L124.3,78.838Z" transform="translate(-76.979 -53.772)" fill="#3b7076" />
        <path id="Path_49" data-name="Path 49" d="M101.136,84.964l3.541-5.541,14.156-.467,4.569-7.422H109.95l3.892-5.917H127.9l8-11.381,5.877-.063-7.44,11.444h11.806l6.83-11.555L159.209,54l-8.1,11.618,18.4.07-3.488,4.488-19.124-.23-6.929,9.478,19.491-.7-3.209,4.182-19.014,1.011-4.947,8.007-6.464.132,6.464-8.091-13.073.822-4.976,7.136-6.15.1,6.15-7.066Zm35.356-6.126,5.557-8.189h-12.1L124.3,78.838Z" transform="translate(-98.518 -23.772)" fill="#3b7076" />
        <path id="Path_45" data-name="Path 45" d="M99.29,84.964l3.848-5.513,15.695-.495,4.569-7.422H108.678l4.139-5.917H127.9l8-11.381,5.877-.063-7.44,11.444h11.806l6.83-11.555L159.209,54l-8.1,11.618,18.4.07-3.488,4.488-19.124-.23-6.929,9.478,19.491-.7-3.209,4.182-19.014,1.011-9.341,15.109-6.464.132,10.858-15.193-13.073.822L110.137,99.3l-6.15.1,10.248-14.44Zm37.2-6.126,5.557-8.189h-12.1L124.3,78.838Z" transform="translate(-39.979 -54.229)" fill="#3b7076" />
        <path id="Path_48" data-name="Path 48" d="M99.29,84.964l3.848-5.513,15.695-.495,4.569-7.422H108.678l4.139-5.917H127.9l8-11.381,5.877-.063-7.44,11.444h11.806l6.83-11.555L159.209,54l-8.1,11.618,18.4.07-3.488,4.488-19.124-.23-6.929,9.478,19.491-.7-3.209,4.182-19.014,1.011-4.947,8.474h-6.3l6.3-8.425-13.073.822-4.976,7.6-6.15.1,6.15-7.533Zm37.2-6.126,5.557-8.189h-12.1L124.3,78.838Z" transform="translate(-61.519 -24.229)" fill="#3b7076" />
        <path id="Path_46" data-name="Path 46" d="M99.29,84.964l3.848-5.513,15.695-.495,4.569-7.422H108.678l4.139-5.917H127.9l8-11.381,5.877-.063-7.44,11.444h11.806l6.83-11.555L159.209,54l-8.1,11.618h26.307l-3.364,4.328H146.892l-6.929,9.478,26.94-.585-3.141,4.051-26.531,1.03-9.341,15.109-6.464.132,10.858-15.193-13.073.822L110.137,99.3l-6.15.1,10.248-14.44Zm37.2-6.126,5.557-8.189h-12.1L124.3,78.838Z" transform="translate(-2.979 -54.229)" fill="#3b7076" />
        <path id="Path_47" data-name="Path 47" d="M99.29,84.964l3.848-5.513,15.695-.495,4.569-7.422H108.678l4.139-5.917H127.9l8-11.381,5.877-.063-7.44,11.444h11.806l6.83-11.555L159.209,54l-8.1,11.618,23.966.051-3.357,4.277H146.892l-6.929,9.478,24.5-.585-3.141,4.051-24.1,1.03L131.3,92.347l-6.464.132,7.452-8.512-13.073.822-5.316,7.585-6.15.1,6.49-7.515Zm37.2-6.126,5.557-8.189h-12.1L124.3,78.838Z" transform="translate(-24.519 -24.229)" fill="#3b7076" />
        <rect id="Rectangle_149-4" data-name="Rectangle 149" width="29.874" height="21.942" transform="translate(36.004 94.485)" fill="#9a6756" />
        <rect id="Rectangle_150-4" data-name="Rectangle 150" width="18.509" height="32.748" transform="translate(188.762 107.783)" fill="#5d372e" />
        <rect id="Rectangle_151-4" data-name="Rectangle 151" width="21.045" height="4.615" transform="translate(191.271 66.65)" fill="#5d372e" />
        <ellipse id="Ellipse_19-4" data-name="Ellipse 19" cx="7.191" cy="7.191" rx="7.191" ry="7.191" transform="translate(181.572 32.983)" fill="#5d372e" />
      </g>
      <g id="WaterToren" transform="translate(307.56 344)">
        <path id="Path_55" data-name="Path 55" d="M136.5,45.9c-1.58,19.13-4.84,30.17-21.46,29.19S97.32,45.98,97.32,45.98l39.17-.08Z" fill="#887f76" />
        <rect id="Rectangle_154" data-name="Rectangle 154" width="44.4" height="12.9" transform="translate(95.21 50.17)" fill="none" stroke="#2a2625" stroke-miterlimit="10" stroke-width="1" />
        <line id="Line_41" data-name="Line 41" x2="0.08" y2="12.32" transform="translate(100.21 50.74)" fill="none" stroke="#2a2625" stroke-miterlimit="10" stroke-width="0.75" />
        <line id="Line_42" data-name="Line 42" x2="0.08" y2="12.32" transform="translate(100.21 50.87)" fill="none" stroke="#2a2625" stroke-miterlimit="10" stroke-width="0.75" />
        <line id="Line_43" data-name="Line 43" x2="0.08" y2="12.32" transform="translate(105.21 50.45)" fill="none" stroke="#2a2625" stroke-miterlimit="10" stroke-width="0.75" />
        <line id="Line_44" data-name="Line 44" x2="0.08" y2="12.32" transform="translate(105.21 50.77)" fill="none" stroke="#2a2625" stroke-miterlimit="10" stroke-width="0.75" />
        <line id="Line_45" data-name="Line 45" x2="0.08" y2="12.32" transform="translate(110.03 50.45)" fill="none" stroke="#2a2625" stroke-miterlimit="10" stroke-width="0.75" />
        <line id="Line_46" data-name="Line 46" x2="0.08" y2="12.33" transform="translate(110.03 50.8)" fill="none" stroke="#2a2625" stroke-miterlimit="10" stroke-width="0.75" />
        <line id="Line_47" data-name="Line 47" x2="0.09" y2="12.33" transform="translate(115 51.1)" fill="none" stroke="#2a2625" stroke-miterlimit="10" stroke-width="0.75" />
        <line id="Line_48" data-name="Line 48" x2="0.09" y2="12.32" transform="translate(115 50.77)" fill="none" stroke="#2a2625" stroke-miterlimit="10" stroke-width="0.75" />
        <line id="Line_49" data-name="Line 49" x2="0.08" y2="12.32" transform="translate(119.98 50.74)" fill="none" stroke="#2a2625" stroke-miterlimit="10" stroke-width="0.75" />
        <line id="Line_50" data-name="Line 50" x2="0.08" y2="12.33" transform="translate(124.98 50.7)" fill="none" stroke="#2a2625" stroke-miterlimit="10" stroke-width="0.75" />
        <line id="Line_51" data-name="Line 51" x2="0.08" y2="12.32" transform="translate(129.93 50.67)" fill="none" stroke="#2a2625" stroke-miterlimit="10" stroke-width="0.75" />
        <line id="Line_52" data-name="Line 52" x2="0.09" y2="12.32" transform="translate(134.93 50.87)" fill="none" stroke="#2a2625" stroke-miterlimit="10" stroke-width="0.75" />
        <line id="Line_53" data-name="Line 53" x2="52.89" transform="translate(91.29 64.49)" fill="none" stroke="#4d3028" stroke-miterlimit="10" stroke-width="2" />
        <path id="Path_56" data-name="Path 56" d="M92.6,16.43h48.64L117.41,0Z" fill="#9a3a2c" />
        <rect id="Rectangle_155" data-name="Rectangle 155" width="39.17" height="4.57" transform="translate(97.33 16.43)" fill="#887f76" />
        <rect id="Rectangle_156" data-name="Rectangle 156" width="42.22" height="4.62" rx="1" transform="translate(96.02 21)" fill="#493f3e" />
        <rect id="Rectangle_157" data-name="Rectangle 157" width="39.17" height="15.72" transform="translate(97.33 25.63)" fill="#887f76" />
        <rect id="Rectangle_158" data-name="Rectangle 158" width="42.22" height="4.62" rx="1" transform="translate(96.02 41.35)" fill="#493f3e" />
        <rect id="Rectangle_159" data-name="Rectangle 159" width="5.42" height="5.42" transform="translate(115.04 74.21)" fill="#887f76" />
        <path id="Path_57" data-name="Path 57" d="M119.46,79.64,121.91,240h-4.08L116.2,79.64Z" fill="#315265" />
        <path id="Path_58" data-name="Path 58" d="M95.21,65.57,76.44,240h6.69L101.57,65.57Z" fill="#824331" />
        <path id="Path_59" data-name="Path 59" d="M133.95,65.57,156.8,240h6.53L139.6,65.57Z" fill="#824331" />
        <line id="Line_54" data-name="Line 54" x2="42.66" y2="25.14" transform="translate(98.47 74.21)" fill="none" stroke="#824331" stroke-miterlimit="10" stroke-width="3" />
        <line id="Line_55" data-name="Line 55" y1="22.13" x2="38.85" transform="translate(97.33 75.15)" fill="none" stroke="#824331" stroke-miterlimit="10" stroke-width="3" />
        <line id="Line_56" data-name="Line 56" x2="43.91" transform="translate(96.57 98.48)" fill="none" stroke="#824331" stroke-miterlimit="10" stroke-width="3" />
        <line id="Line_57" data-name="Line 57" y1="0.05" x2="61.62" transform="translate(87.81 173.3)" fill="none" stroke="#824331" stroke-miterlimit="10" stroke-width="3" />
        <line id="Line_58" data-name="Line 58" y1="36.35" x2="56.37" transform="translate(87.81 137)" fill="none" stroke="#824331" stroke-miterlimit="10" stroke-width="3" />
        <line id="Line_59" data-name="Line 59" x2="55.71" y2="35.93" transform="translate(93.72 137.37)" fill="none" stroke="#824331" stroke-miterlimit="10" stroke-width="3" />
        <line id="Line_60" data-name="Line 60" x2="52.89" y2="1.16" transform="translate(91.29 135.84)" fill="none" stroke="#824331" stroke-miterlimit="10" stroke-width="3" />
        <line id="Line_61" data-name="Line 61" y1="35.48" x2="46.79" transform="translate(92.6 100)" fill="none" stroke="#824331" stroke-miterlimit="10" stroke-width="3" />
        <line id="Line_62" data-name="Line 62" x2="49.31" y2="37" transform="translate(94.87 98.48)" fill="none" stroke="#824331" stroke-miterlimit="10" stroke-width="3" />
        <line id="Line_63" data-name="Line 63" x2="73.9" y2="0.82" transform="translate(81.59 211.05)" fill="none" stroke="#824331" stroke-miterlimit="10" stroke-width="3" />
        <line id="Line_64" data-name="Line 64" y1="36.3" x2="65.5" transform="translate(84.33 174.7)" fill="none" stroke="#824331" stroke-miterlimit="10" stroke-width="3" />
        <line id="Line_65" data-name="Line 65" x2="67.68" y2="38.52" transform="translate(87.81 173.35)" fill="none" stroke="#824331" stroke-miterlimit="10" stroke-width="3" />
      </g>
      <g id="Solar_Panel" data-name="Solar Panel" transform="translate(1269.38 195.8)">
        <path id="Path_60" data-name="Path 60" d="M161.46,206.62l-14.92-3.77-22.71-5.29v-29.3H81.13l-.3,28.94-22.41,5.65L43.5,206.62s-4.3.86-4.3,3.93,2.13,4.03,4.39,3.94H161.37c2.26.09,4.39-.86,4.39-3.94s-4.3-3.93-4.3-3.93Z" fill="#5e8a8b" />
        <path id="Path_61" data-name="Path 61" d="M220.87,82.08s13.75-7.41,13.75-13.83-8.68-8.15-13.75-12.34-2.89-7.16-3.38-8.64,7.96-14.57,4.1-19.5-18.82.74-23.88-2.96-5.79-20-10.61-20.59-15.68,12.2-20.26,11.95S154.78,1.11,147.78,4.81s-6.27,16.29-6.75,19.75-6.27,4.94-6.27,4.94-16.16-3.21-19.3,3.95,3.86,14.32,4.68,18.76-4.68,8.64-4.68,8.64l4.95,4.31c2.61-25.57,23.72-45.5,49.39-45.5,27.43,0,49.67,22.76,49.67,50.83,0,23.44-15.52,43.12-36.6,49l11.28,9.81s3.56-8.21,4.28-12.42a6.333,6.333,0,0,1,4.1-5.17s17.13,2.47,20.75-2.22-3.14-14.07-4.82-19.01,2.41-8.39,2.41-8.39Z" fill="#f7931e" />
        <ellipse id="Ellipse_21" data-name="Ellipse 21" cx="51.38" cy="50.16" rx="51.38" ry="50.16" transform="translate(116.487 119.408) rotate(-87.06)" fill="#fbbe3d" />
        <path id="Path_62" data-name="Path 62" d="M10.59,164.69H194.04s7.6,1.45,4.88-6.51-28.58-87.74-28.58-87.74-.36-5.25-8.5-5.07-120.67,0-120.67,0-5.97-1.09-7.78,6.69S5.52,157.81,5.52,157.81s-1.09,6.87,5.07,6.87Z" fill="#5e8a8b" stroke="#265d62" stroke-miterlimit="10" stroke-width="9" />
        <path id="Path_63" data-name="Path 63" d="M183.08,123.17l-43.06.26L137.83,99.7l37.13-.26-2.33-7.94-35.43.47-2.31-23.01-8.38.22,1.95,22.73-44.66.54,2.29-23.23-9.29.38L74.25,92.11H32.01l-3.48,8.73,45.19-.63L70.8,123.58l-48.97-.43-2.81,8.37,50.69.14L65.5,161.73l9.02.2,3.75-30.68,53.72.5,3.28,30.02h8.5l-3.04-30.79,44.12-.25-1.77-7.57Zm-52.55-.26c-.55.58-50.63,0-50.63,0l2.73-22.71h46.44S131.07,122.33,130.53,122.91Z" fill="#a7bdbb" />
        <rect id="Rectangle_160" data-name="Rectangle 160" width="23.55" height="6.87" transform="translate(80.92 190.38)" fill="#265d62" />
        <path id="Path_64" data-name="Path 64" d="M9.83,164.94H193.28s7.6,1.45,4.88-6.51-28.58-87.74-28.58-87.74-.36-5.25-8.5-5.07-120.67,0-120.67,0-5.97-1.09-7.78,6.69S4.76,158.07,4.76,158.07,3.67,164.94,9.83,164.94Z" fill="none" stroke="#265d62" stroke-miterlimit="10" stroke-width="9" />
      </g>
      <g id="Duiktank" transform="translate(1156.24 790.265)">
        <path id="Path_65" data-name="Path 65" d="M233,58.4c0-10.77-49.5-19.5-110.57-19.5S11.86,47.64,11.86,58.4c0,.54-.1,131.35-.1,131.59,0,10.77,49.5,19.5,110.57,19.5s110.32-8.69,110.56-19.42c0,0,.11-131.13.11-131.67Z" fill="#2d3f4d" />
        <path id="Path_66" data-name="Path 66" d="M170.55,103.99l5.91-11.97,6.06,11.85s3.89,9.29-5.97,9.29S170.55,103.99,170.55,103.99Z" fill="#679998" />
        <path id="Path_67" data-name="Path 67" d="M145.8,133.25l13.57-27.48,13.9,27.2s8.93,21.32-13.71,21.31-13.76-21.04-13.76-21.04Z" fill="#679998" />
        <line id="Line_66" data-name="Line 66" y1="4.36" x2="26.93" transform="translate(26.42 52.37)" fill="none" stroke="#97b1ae" stroke-linecap="round" stroke-miterlimit="10" stroke-width="4" />
        <line id="Line_67" data-name="Line 67" x2="24.53" y2="3.55" transform="translate(28 190.64)" fill="none" stroke="#97b1ae" stroke-linecap="round" stroke-miterlimit="10" stroke-width="4" />
        <line id="Line_68" data-name="Line 68" x2="26.29" y2="2.08" transform="translate(27.26 175.72)" fill="none" stroke="#97b1ae" stroke-linecap="round" stroke-miterlimit="10" stroke-width="4" />
        <line id="Line_69" data-name="Line 69" x2="25.46" transform="translate(27.34 160.39)" fill="none" stroke="#97b1ae" stroke-linecap="round" stroke-miterlimit="10" stroke-width="4" />
        <line id="Line_70" data-name="Line 70" x2="27.13" transform="translate(26.42 141.65)" fill="none" stroke="#97b1ae" stroke-linecap="round" stroke-miterlimit="10" stroke-width="4" />
        <line id="Line_71" data-name="Line 71" x2="27.13" transform="translate(26.42 124.66)" fill="none" stroke="#97b1ae" stroke-linecap="round" stroke-miterlimit="10" stroke-width="4" />
        <line id="Line_72" data-name="Line 72" x2="26.38" transform="translate(26.42 107.68)" fill="none" stroke="#97b1ae" stroke-linecap="round" stroke-miterlimit="10" stroke-width="4" />
        <line id="Line_73" data-name="Line 73" y1="2.31" x2="27.13" transform="translate(26.42 88.39)" fill="none" stroke="#97b1ae" stroke-linecap="round" stroke-miterlimit="10" stroke-width="4" />
        <line id="Line_74" data-name="Line 74" y1="3.76" x2="27.13" transform="translate(26.42 69.96)" fill="none" stroke="#97b1ae" stroke-linecap="round" stroke-miterlimit="10" stroke-width="4" />
        <path id="Path_68" data-name="Path 68" d="M26.43,209.49V38.91s.41-11.76,8.32-11.21,8.33,15.13,8.33,15.13v3.43" fill="none" stroke="#316a71" stroke-linecap="round" stroke-miterlimit="10" stroke-width="5" />
        <path id="Path_69" data-name="Path 69" d="M53.55,215.43l.04-7.93V31.15S52.53,18.13,61.8,17.74s8.73,21.17,8.73,21.17c-.05,3.72,0,9.85,0,9.85" fill="none" stroke="#316a71" stroke-linecap="round" stroke-miterlimit="10" stroke-width="5" />
        <path id="Path_70" data-name="Path 70" d="M84.58,40.18c-7.4.48-14.43,1.09-21,1.82V58.99h21V40.17Z" fill="#2d3f4d" />
        <path id="Path_71" data-name="Path 71" d="M46.45,49.52V44.23c-2.85.48-5.56.99-8.1,1.52v3.77h8.1Z" fill="#2d3f4d" />
      </g>
      <path id="Path_127" class="path_usage" data-name="Path 127" d="M520.941,893.7l448,2.3V608s186-2.3,232-2.3" fill="none" stroke="#fa6262" stroke-width="5" stroke-dasharray="8" />
      <path id="Path_128" class="path_production" data-name="Path 128" d="M520.941,917.7h472v-288h208" fill="none" stroke="#b1cc65" stroke-width="5" stroke-dasharray="8" />
      <path id="Path_129" class="path_usage" data-name="Path 129" d="M488.941,581.7h712" fill="none" stroke="#ffcb44" stroke-width="5" stroke-dasharray="8" />
      <path id="Path_130" class="path_usage" data-name="Path 130" d="M880.941,429.7h112v128h208" fill="none" stroke="#fa6262" stroke-width="5" stroke-dasharray="8" />
      <path id="Path_131" class="path_production" data-name="Path 131" d="M1448.941,405.7h64v168h-168" fill="none" stroke="#b6cb7b" stroke-width="5" stroke-dasharray="8" />
      <path id="Path_132" class="path_production" data-name="Path 132" d="M1624.941,533.7h-80v64h-200" fill="none" stroke="#b6cb7b" stroke-width="5" stroke-dasharray="8" />
      <path id="Path_133" class="path_usage" data-name="Path 133" d="M1400.941,973.7h144v-352h-200" fill="none" stroke="#ff5959" stroke-width="5" stroke-dasharray="8" />
      <g>
        <rect id="Rectangle_230" data-name="Rectangle 230" width="120" height="120" transform="translate(1213 544)" rx="8" fill="#b84626" />
        <path id="Path_134" data-name="Path 134" d="M56.793,95.512H86.261L46.654,147.87,51.5,114.427l-28.156.878,39.6-55.435Z" transform="translate(1217.739 500.13)" fill="#fcfcfc" />
      </g>
    </g>
    <text id="Opzichterswoning_En_Kantoorgebouwen_powertitle" text-anchor="middle" y="27" transform="translate(735 440)" fill="#666" font-size="24" font-family="Roboto-Bold, Roboto" font-weight="700">
        Transfo Gebouw
    </text>
    <text id="Opzichterswoning_En_Kantoorgebouwen_powertext" data-name="-- kW" text-anchor="middle" y="27" transform="translate(735 475)" fill="#666" font-size="28" font-family="Roboto-Bold, Roboto" font-weight="700">
      -- kW
    </text>
        <text id="Waterkot_powertitle" text-anchor="middle" y="27" transform="translate(425 585)" fill="#666" font-size="24" font-family="Roboto-Bold, Roboto" font-weight="700">
      Watertoren
    </text>
    <text id="Waterkot_powertext" data-name="-- kW" text-anchor="middle" y="27" transform="translate(425 620)" fill="#666" font-size="28" font-family="Roboto-Bold, Roboto" font-weight="700">
      -- kW
    </text>
    <text id="windmolen_powertitle"  text-anchor="middle" y="27" transform="translate(1680 545)" fill="#666" font-size="24" font-family="Roboto-Bold, Roboto" font-weight="700">
      Windturbine
    </text>
    <text id="windmolen_powertext" data-name="-- kW" text-anchor="middle" y="27" transform="translate(1680 580)" fill="#666" font-size="28" font-family="Roboto-Bold, Roboto" font-weight="700">
      -- kW
    </text>
    <text id="zonnepanelen_powertitle" text-anchor="middle" y="27" transform="translate(1370 410)" fill="#666" font-size="24" font-family="Roboto-Bold, Roboto" font-weight="700">
      Zonneparking
    </text>
    <text id="zonnepanelen_powertext" data-name="-- kW" text-anchor="middle" y="27" transform="translate(1370 445)" fill="#666" font-size="28" font-family="Roboto-Bold, Roboto" font-weight="700">
      -- kW
    </text>
    <text id="Duiktank_powertitle" text-anchor="middle" y="27" transform="translate(1275 1005)" fill="#666" font-size="24" font-family="Roboto-Bold, Roboto" font-weight="700">
      Duiktank
    </text>
    <text id="Duiktank_powertext" data-name="-- kW" text-anchor="middle" y="27" transform="translate(1275 1040)" fill="#666" font-size="28" font-family="Roboto-Bold, Roboto" font-weight="700">
      -- kW
    </text>
    <text id="Fuifzaal_powertitle" text-anchor="middle" y="27" transform="translate(345 935)" fill="#666" font-size="24" font-family="Roboto-Bold, Roboto" font-weight="700">
      Fuifzaal
    </text>
    <text id="Fuifzaal_powertext" data-name="-- kW" text-anchor="middle" y="27" transform="translate(345 970)" fill="#666" font-size="28" font-family="Roboto-Bold, Roboto" font-weight="700">
      -- kW
    </text>
    <text id="Transfo_powertitle" text-anchor="middle" y="37" transform="translate(1270 655)" fill="#666" font-size="24" font-family="Roboto-Bold, Roboto" font-weight="700">
      Transfo Site
    </text>
    <text id="Transfo_powertext" data-name="-- kW" text-anchor="middle" y="37" transform="translate(1270 690)" fill="#666" font-size="28" font-family="Roboto-Bold, Roboto" font-weight="700">
      -- kW
    </text>
    <g>
      <g>
        <rect id="Legende_Verbruik" data-name="Verbruik" width="40" height="40" fill="#fa6262" transform="translate(60 225)" rx="8" />
        <text id="Legende_Verbruik_Text" text-anchor="left" y="30" transform="translate(110 225)" fill="#666" font-size="32" font-family="Roboto-Bold, Roboto" font-weight="700">
          Verbruik
        </text>
      </g>
            <g>
        <rect id="Legende_Verbruik" data-name="Verbruik" width="40" height="40" fill="#b1cc65" transform="translate(60 275)" rx="8" />
        <text id="Legende_Verbruik_Text" text-anchor="left" y="30" transform="translate(110 275)" fill="#666" font-size="32" font-family="Roboto-Bold, Roboto" font-weight="700">
          Productie
        </text>
      </g>
            <g>
        <rect id="Legende_Verbruik" data-name="Verbruik" width="40" height="40" fill="#ffcb44" transform="translate(60 325)" rx="8" />
        <text id="Legende_Verbruik_Text" text-anchor="left" y="30" transform="translate(110 325)" fill="#666" font-size="32" font-family="Roboto-Bold, Roboto" font-weight="700">
          Opslag
        </text>
      </g>

    
    </g>
  </g>
</svg>