<?xml version="1.0" encoding="UTF-8"?>
<svg id="Layer_1" data-name="Layer 1" xmlns="http://www.w3.org/2000/svg" viewBox="0 0 400 400">
  <defs>
    <style>
      .HowestColor-1 {
        fill: #fff;
      }

      .HowestColor-2 {
        fill: #41caf6;
      }
    </style>
  </defs>
  <path id="FrameBody" class="HowestColor-2" d="M366.5,73.55c-.84-1.31-2.62-1.59-3.94-.75l-22.69,15.19V42.43c0-7.41-6-13.5-13.5-13.5H183.05l-13.78,9.28c-.47,.28-1.03,.47-1.59,.47-.94,0-1.78-.47-2.34-1.22-.84-1.31-.56-3,.75-3.94l1.87-1.22,18.09-11.62c1.31-.84,1.69-2.53,.84-3.84-.84-1.31-2.53-1.69-3.84-.84l-20.15,13.03h-10.78l-13.78,9.28c-.47,.28-1.03,.47-1.59,.47-.94,0-1.78-.47-2.34-1.22-.84-1.31-.56-3,.75-3.94l30.37-20.44c1.31-.84,1.59-2.62,.75-3.94-.84-1.31-2.62-1.59-3.94-.75l-30.56,20.53h-53.53c-7.41,0-13.5,6-13.5,13.5v37.12l-22.12,14.72c-1.31,.84-1.69,2.62-.75,3.94,.56,.84,1.41,1.22,2.34,1.22,.56,0,1.03-.19,1.59-.47l19.03-12.65h0l4.22-2.81c1.31-.84,3-.47,3.94,.75,.84,1.31,.47,3-.75,3.94l-7.31,4.87v9.75l-9.28,6.19c-1.31,.84-1.59,2.62-.75,3.94,.56,.84,1.41,1.22,2.34,1.22,.56,0,1.12-.19,1.59-.47l9.75-6.56c1.12-.28,2.44,.09,3.09,1.12,.84,1.31,.56,3-.75,3.94l-5.91,4.03v87.08l-30.75,20.44c-1.31,.84-1.59,2.62-.75,3.94,.56,.84,1.41,1.22,2.34,1.22,.56,0,1.12-.19,1.59-.47l33.09-22.22c1.22-.56,2.72-.19,3.47,1.03,.84,1.31,.56,3-.75,3.94l-8.44,5.62v148.77c0,7.31,5.81,13.22,13.03,13.4l-7.78,5.25c-1.31,.84-1.59,2.62-.75,3.94,.56,.84,1.41,1.22,2.34,1.22,.56,0,1.12-.19,1.59-.47l30.47-20.44c1.31-.84,3-.56,3.94,.75,.84,1.31,.56,3-.75,3.94l-8.72,5.91h68.99l-7.41,4.97c-1.31,.84-1.59,2.62-.75,3.94,.56,.84,1.41,1.22,2.34,1.22,.56,0,1.12-.19,1.59-.47l40.5-26.9c1.31-.84,3-.56,3.94,.75s.56,3-.75,3.94l-18.84,12.65h100.96l-6.09,3.94c-1.31,.84-1.69,2.62-.84,3.94,.56,.84,1.41,1.31,2.34,1.31,.56,0,1.03-.19,1.5-.47l29.72-19.22c1.31-.84,3-.47,3.94,.84,.84,1.31,.47,3-.84,3.94l-9,5.81h17.25c7.41,0,13.5-6,13.5-13.5v-120.83l-5.81,3.94c-.47,.28-1.03,.47-1.59,.47-.94,0-1.78-.47-2.34-1.22-.84-1.31-.56-3,.75-3.94l32.34-21.65c1.31-.84,1.59-2.62,.75-3.94-.84-1.31-2.62-1.59-3.94-.75l-20.53,13.59V122.29l-5.81,3.94c-.47,.28-1.03,.47-1.59,.47-.94,0-1.78-.47-2.34-1.22-.84-1.31-.56-3,.75-3.94l8.91-6h0l18.19-12.19c1.31-.84,1.59-2.62,.75-3.94-.84-1.31-2.62-1.59-3.94-.75l-14.9,10.03v-7.22l-5.81,3.94c-.47,.28-1.03,.47-1.59,.47-.94,0-1.78-.47-2.34-1.22-.84-1.31-.56-3,.75-3.94l8.91-6h0l25.78-17.34c1.41-.84,1.78-2.62,.94-3.84h0Zm-44.15,206.98c0,3.84-3.09,6.94-6.94,6.94H87.34c-3.84,0-6.94-3.09-6.94-6.94V52.55c0-3.84,3.09-6.94,6.94-6.94h227.98c3.84,0,6.94,3.09,6.94,6.94v227.98h.09ZM196.08,14.31c-.94,0-1.78-.47-2.34-1.22-.84-1.31-.56-3,.75-3.94l10.12-6.84c1.31-.84,3-.56,3.94,.75,.84,1.31,.56,3-.75,3.94l-10.22,6.84c-.47,.28-1.03,.47-1.5,.47ZM44.97,248c-.94,0-1.78-.47-2.34-1.22-.84-1.31-.56-3,.75-3.94l12.09-8.06c1.31-.84,3-.56,3.94,.75,.84,1.31,.56,3-.75,3.94l-12.09,8.06c-.56,.37-1.12,.47-1.59,.47Zm0,122.99c-.94,0-1.78-.47-2.34-1.22-.84-1.31-.56-3,.75-3.94l12.09-8.06c1.31-.84,3-.56,3.94,.75,.84,1.31,.56,3-.75,3.94l-12.09,8.06c-.56,.28-1.12,.47-1.59,.47ZM351.69,197.94c-.94,0-1.78-.47-2.34-1.22-.84-1.31-.56-3,.75-3.94l9.66-6.47c1.31-.84,3-.56,3.94,.75,.84,1.31,.56,3-.75,3.94l-9.66,6.47c-.47,.28-1.03,.47-1.59,.47Zm-99.93,200.23c-.94,0-1.78-.47-2.34-1.22-.84-1.31-.56-3,.75-3.94l9.66-6.47c1.31-.84,3-.56,3.94,.75,.84,1.31,.56,3-.75,3.94l-9.66,6.47c-.47,.28-1.03,.47-1.59,.47Zm95.15-83.9c-.94,0-1.78-.47-2.34-1.22-.84-1.31-.56-3,.75-3.94l9.66-6.47c1.31-.84,3-.56,3.94,.75,.84,1.31,.56,3-.75,3.94l-9.66,6.47c-.47,.37-1.03,.47-1.59,.47Z"/>
  <g>
    <path d="M292.12,273.62h-5.51v5.46h-5.49v-5.39h-5.55v5.37h-16.48v-5.4h10.92v-5.5h-5.39v-5.49h5.37v-5.55h-5.4v-5.48h-11.03v5.44h5.37v5.49h-10.91v5.47h-5.49v-5.41h-5.46v-5.49h10.89v-11.05h5.51v-11.02h-5.44v-5.51h-5.5v16.41h-5.49v-5.45h-5.6l.04,.04v-11.06l-.04,.04h5.55v-5.55l-.04,.04h10.98v-5.59h-5.37v-5.48h5.36v-11.02h-10.97l.04,.03v-27.49h10.94v5.36h5.55v5.58l.04-.04h-5.51v5.5h-5.45v5.55h10.91v33.02h5.55v-5.37h22.03v5.42h11.01v5.5h11.01v16.51h5.55v-5.34h5.47v21.93h-5.45l.04,.04v-10.98h-5.59v5.5c-3.76,0-7.38,0-11.01,0,0-1.86,.02-3.72,.03-5.57h5.46v-5.43h-5.43c0,1.87,0,3.67,0,5.46h-5.51c0,1.9,0,3.71,0,5.51h-5.46v5.43h5.44v-5.46c1.84,0,3.68,.02,5.51,.03v11.03l.03-.04Zm-5.56-38.51h-16.45v16.41h16.45v-16.41Zm5.57,10.9h5.42v-5.38h-5.42v5.38Z"/>
    <path d="M308.66,157.82h-5.46v11.05h5.41v5.5h5.47v11.02h-5.45l.04,.04v-5.51h-5.49v-5.49h-5.53v-5.51h-16.56v10.92h-11.04v5.5h-5.5v-10.97l-.04,.04h11.03v-16.58h5.46v-5.43h-5.44v5.46h-5.58v-10.99h-5.49v10.96h-5.5l.04,.04v-16.49h-5.55v16.49l.03-.04h-5.54l.04,.03v-5.51h-10.98v-5.49h10.91v-5.51h-10.89v-16.52h5.45v-5.6l-.04,.03h5.52v-5.55h5.46v-5.49h-5.46v-5.57h-5.48v-5.49l-.04,.04h5.55v-5.55l-.04,.04h5.55l-.04-.03v11.03h5.49v5.5h5.48v5.49h-5.37v5.55h5.35v5.49h-16.36v5.54h5.38v5.46h5.55v-5.38h11.01v-5.48h5.49v10.97h5.59l-.04-.04v5.5h-5.44v5.49h10.93v5.55c1.94,0,3.76,0,5.58,0,0,1.84-.02,3.68-.03,5.51h-5.42v5.45h5.39c0-1.89,0-3.68,0-5.47,1.84,0,3.69,0,5.48,0v-5.46h-5.45v-5.44h10.99v5.38h5.54v5.57l.04-.04Z"/>
    <path d="M176.32,262.6h-16.59v11.06l.04-.04h-5.51v5.46h-5.44v-10.92h5.35v-5.54h-5.4v-5.49h-11.05v-5.53h-5.51v-16.57l-.04,.04h5.55c0-5.57,0-11.08,0-16.59l-.04,.03h5.55v-5.55l-.04,.04h5.55l-.04-.04v5.55h5.55l-.04-.04v5.46h5.55v-5.46l-.04,.04h5.57v11h5.49c0,3.69,0,7.37,0,11.06l-5.51-.03v-5.54h-5.54v-5.4h-5.54v5.45h-5.54v5.54h-5.39v5.54h10.99v10.91h5.54v-16.53c1.92,0,3.71,0,5.51,0,0,1.84,0,3.69,0,5.48h5.46v-5.45c1.85,.01,3.7,.02,5.55,.03l-.04-.04v5.46h5.55v-5.46l-.04,.04h5.55l-.04-.04v11.06h11.06l-.04-.04c.01,3.69,.02,7.37,.03,11.06-1.85-.01-3.7-.02-5.55-.03l.04,.04v-5.58h-11.1v-5.42h-10.93v5.5h5.45v5.5l.03-.04Zm-33.04-38.55v5.42h5.39v-5.42h-5.39Z"/>
    <path d="M209.36,75.11v5.45h-10.95v-5.39h-5.5v-5.49h-5.53v10.95h5.44c0,3.75,0,7.41,0,11.06l.04-.03-5.55,.03v-5.46h-5.49v5.46h-5.45v-11.07h5.36v-5.54h-5.46v-5.45c-3.76,0-7.39,0-11.02,0,0-1.82,0-3.64,0-5.46h-10.94v5.44h10.97v11.11h5.41v10.89h-5.44v-5.46h-5.52l.04,.04v-11.09h-11.08v-11.01h-5.5l.04,.03v-5.54l-.03,.04h5.51v-5.46h16.52v5.39h5.5v-5.37h5.49v10.87h11.04v-5.42h-5.35v-5.47h16.42v5.45l.04-.03h-5.46v5.55h5.46l-.04-.04v5.55h5.55l-.04-.04v5.55h5.55l-.04-.03Z"/>
    <path d="M214.93,124.77v-5.51h-5.46v-5.49h5.39v-5.47h-10.94v21.89h-5.49v-5.45h-5.59l.03,.04v-5.55h-5.55l.04,.03c-.01-1.85-.03-3.7-.04-5.55,1.82,0,3.64,0,5.46,0v-5.43h-5.44v5.46h-5.5v-5.52h-5.52v-5.54l-.04,.03h11.03v-5.55c1.85,0,3.7,0,5.54,0,0,1.82,0,3.64,0,5.46h5.43v-5.44h-5.46c.01-1.85,.02-3.7,.03-5.55l-.04,.03c1.79,0,3.59,0,5.51,0v-5.45h5.49v16.49h16.61l-.03-.04v5.46h11.06v-5.46l-.04,.04h5.51v11.03l.03-.04h-5.51v16.49h-11.06v-5.45h5.46v-10.94h-5.44v10.97c-1.85-.01-3.69-.03-5.54-.04l.04,.04Z"/>
    <path d="M214.89,224h11.07v-5.52l-.04,.04h11.03v5.51l.04-.04h-5.55v5.55l.04-.04h-11.08v5.57h-5.5v5.5l.04-.04h-5.55l.04,.04v-5.46h-16.55v5.46c-1.85-.01-3.7-.02-5.55-.03l.04,.04v-5.46h-5.55v5.46l.04-.04h-5.55l.04,.04c-.01-3.69-.02-7.37-.03-11.06h5.55v-11.03l-.03,.04h5.5v10.96h5.49v-11h5.58v5.46h5.43v-5.44h-5.46v-5.48h5.56v-5.57l-.04,.04h5.5v-5.46h5.44v10.92h-5.37v5.49h5.48c0,1.94,0,3.76,0,5.58h-5.46v5.43h5.44v-5.46Z"/>
    <path d="M126.57,91.63h-38.4V53.15h38.4v38.48Zm-32.96-5.54h27.48v-27.45h-27.48v27.45Z"/>
    <path d="M275.66,53.11h38.4v38.48h-38.4V53.11Zm5.44,32.98h27.48v-27.45h-27.48v27.45Z"/>
    <path d="M126.57,279.12h-38.4v-38.48h38.4v38.48Zm-32.92-33.02v27.48h27.44v-27.48h-27.44Z"/>
    <path d="M143.2,130.29h5.5v5.47h5.45v5.52h-5.37v5.49h5.49c0,1.94,0,3.76,0,5.58-3.66,0-7.31,0-10.98,0v5.43h10.95v-5.46l5.54,.04-.04-.04v5.51h5.46v10.95h-5.4v-5.35h-5.54v5.37h-11v-5.39h-5.5v16.47h-5.58l.03,.04v-22.12h5.45v-5.5h-5.45v-5.5l-.04,.04h11.06v-16.58l-.03,.04Z"/>
    <path d="M308.67,135.79v-5.51h-11.01v-5.49h-16.51v-5.49h5.42v-11.02h16.52v5.43h5.56v5.55h-5.46v5.43h5.44v-5.46h5.45v16.53h-5.44l.04,.04Z"/>
    <path d="M143.24,207.49v-16.54c3.71,0,7.37,0,11.02,0l-.03-.04v5.55h5.55l-.04-.03v5.49h22.06v5.57l.04-.04h-11.1v5.45h-5.48v-5.36h-5.51v10.97l.04-.04h-5.55l.04,.04v-5.55h-5.55l.04,.04v-5.55h-5.55l.04,.03Z"/>
    <path d="M159.77,102.68h-5.49v-5.44h-5.52v5.47c-1.89,0-3.71,0-5.52,0l.04,.03c-.02-5.04-.03-10.07-.05-15.11,0-.45,0-.9,0-1.51h-5.54l.04,.04v-5.51h-5.46v-16.54c3.66,0,7.32,0,10.98,0l-.04-.03v5.55h-5.44v5.54h5.47v5.5h11.03c0,1.92,0,3.71,0,5.5h-5.46v5.43h5.44v-5.46l5.55,.03-.04-.04v16.58l.03-.04Z"/>
    <path d="M275.54,190.92v5.5h5.51v11.08h16.59l-.04-.04v5.55h5.55l-.04-.04v5.55l.04-.04h-5.55v5.55l.03-.04h-10.96v-5.43h5.37v-5.54h-32.92v-5.49h16.36v-5.54h-5.35v-11.03h5.45l-.04-.04Z"/>
    <path d="M104.63,212.97h-5.52v5.46h-10.95v-10.88h5.36v-5.55h-5.34v-11.01h5.33v-5.55h-5.35v-5.52h10.97l-.03-.04v11.08h5.55v5.49h-5.47v11.06h5.44v5.49l.03-.04Z"/>
    <path d="M259.03,69.59h-10.98v-5.44h-22.03v-5.53h10.91v-5.47h5.49v5.38h5.54v-5.36h22v5.37h-16.41v5.54h5.43v5.55l.04-.04Z"/>
    <path d="M99.05,135.85h11.03v-5.53h-5.38v-16.51h5.37v5.46h5.59l-.03-.04v5.55h5.55l-.04-.04v5.55l.04-.04h-5.55v11.06l.04-.04h-5.58v5.51h-5.49l.04,.04v-5.55h-5.55l.04,.03c-.01-1.84-.02-3.67-.03-5.51l-.03,.04Z"/>
    <path d="M115.62,207.46v27.5h-27.44v-10.86h5.36v5.37h16.54v-10.96h-5.45c0-1.91,0-3.73,0-5.55l-.03,.04h5.58v-5.51h5.49l-.04-.03Z"/>
    <path d="M220.43,262.6h-5.49v5.51h-5.57l.04,.04v-11.08h-5.57v-5.5h-5.5l.04,.04c-.01-1.85-.02-3.7-.03-5.55h5.57v-5.48h5.49l-.04-.04v5.46h5.55v-5.46l-.04,.04h5.43v11.04h-5.36v5.53h5.44v5.49l.03-.04Z"/>
    <path d="M115.7,102.74v-5.46h21.97v5.43l.04-.03h-5.46v5.55h5.46l-.04-.04v5.55h5.55l-.04-.03v5.44h-10.97v-5.42c-3.74,0-7.39,0-11.04,0l.04,.03v-5.49h5.38v-5.57c-3.64,0-7.29,0-10.94,0l.04,.03Z"/>
    <path d="M99.11,174.36h-10.96v-21.98h5.38v-11.06c1.94,0,3.76,0,5.58,0l-.04-.03v5.55h5.55l-.04-.04v11.09h-10.97v11.01h5.45v5.5l.03-.04Z"/>
    <path d="M126.65,124.78h5.49v5.51h5.58l-.03-.04v5.57h-5.51v11l.04-.04h-11.07v5.54l.04-.04h-5.51v-11.02l-.04,.04h10.99v-5.57h-5.44v-5.49l-.04,.04h5.55v-5.55l-.03,.04Z"/>
    <path d="M220.43,102.72v-5.49h5.52v-5.58l-.04,.03h5.55v-5.55l-.04,.04h5.55l-.04-.04v5.55h5.55l-.04-.04v5.55l.04-.04h-11.06v5.55l.04-.04h-11.06l.03,.04Z"/>
    <path d="M225.95,218.49h-5.45v-16.46h5.4v5.4h5.5v-5.45c1.95,0,3.77,0,5.58,0l-.04-.03v11.08h-11.03v5.5l.04-.04Z"/>
    <path d="M132.21,218.51v-5.49h-11.03v-5.57l-.04,.03h11.06v-5.55l-.03,.04h5.49v5.51c1.94,0,3.76,0,5.58,0l-.04-.03v5.55l.04-.04h-5.55v5.55l.04-.03c-1.85,0-3.7,0-5.55-.01l.04,.04Z"/>
    <path d="M104.62,102.67h-5.51v5.49h-5.5v5.48h-5.45v-16.38h16.41v5.45l.04-.04Z"/>
    <path d="M264.49,97.25h11.02v5.42h5.46v10.98h-10.86v-10.94h-5.58c0-1.92,0-3.7,0-5.49l-.03,.04Z"/>
    <path d="M132.28,262.66h10.83v16.42h-10.83v-16.42Z"/>
    <path d="M159.73,179.89v5.51h5.46v11.03c-1.82,0-3.64,0-5.46,0l.04,.03v-5.55h-5.55l.03,.04c0-1.79,0-3.59,0-5.51h-10.97v-5.51h16.48l-.04-.04Z"/>
    <path d="M209.37,268.11v10.96h-16.5v-10.95l-.04,.04,5.55-.03v5.46h5.49v-5.46l5.55,.03-.04-.04Z"/>
    <path d="M187.31,268.12v10.96h-5.42v-5.4h-11.02v-5.48h5.45c0-1.95,0-3.77,0-5.59l-.03,.04h5.57v5.51h5.49l-.04-.03Z"/>
    <path d="M231.43,240.54v22.06h-5.51l.04,.04v-22.06h5.51l-.04-.04Z"/>
    <path d="M308.62,218.49v5.5h5.45v5.44h-16.44c0-1.8,0-3.62,0-5.43l-.03,.04h5.55v-5.55l-.04,.04h5.55l-.04-.03Z"/>
    <path d="M181.79,207.49h5.5v-5.45h5.44v10.92h-10.94l.03,.04v-5.55l-.04,.04Z"/>
    <path d="M286.63,102.6v-5.31h16.42v5.31h-16.42Z"/>
    <path d="M236.94,80.66c3.69,0,7.38,0,11.06,0l-.03-.04v11.06l.04-.04h-5.55l.04,.04v-5.55h-5.55l.04,.04v-5.55l-.03,.04Z"/>
    <path d="M247.98,157.82v10.97h-5.43v-5.41h-5.51v-5.52c3.66,0,7.32,0,10.98,0l-.04-.04Z"/>
    <path d="M264.55,174.37h-10.96v-5.43h5.45v-5.59l-.04,.03h5.51v11.03l.04-.04Z"/>
    <path d="M297.64,207.5v-10.96h10.93v5.37h-5.46v5.58l.04-.04h-5.55l.04,.04Z"/>
    <path d="M259.06,91.61c-1.86,.02-3.72,.03-5.58,.05l.04,.03v-11.06l-.03,.04h5.54c0,3.7,0,7.34,0,10.98l.03-.04Z"/>
    <path d="M214.98,53.13h5.36v10.87h-5.36v-10.87Z"/>
    <path d="M286.67,179.96h5.36v10.87h-5.36v-10.87Z"/>
    <path d="M132.17,185.44h5.44v10.98h-5.44l.03,.04v-11.06l-.03,.04Z"/>
    <path d="M308.63,268.11v5.51h-11.03l.04,.04v-5.51h11.03l-.04-.04Z"/>
    <path d="M209.37,69.63h10.95v5.47c-3.66,0-7.3,0-10.95,0l.04,.03v-5.55l-.03,.04Z"/>
    <path d="M308.63,185.39v5.45h-10.95v-5.41c3.67,0,7.33,0,10.98,0l-.04-.04Z"/>
    <path d="M181.79,124.75v5.44h-10.93v-5.4h10.97l-.04-.04Z"/>
    <path d="M170.76,102.68v5.44h-10.99c0-1.81,0-3.63,0-5.44l-.03,.04h11.06l-.04-.03Z"/>
    <path d="M132.17,218.47v5.45h-10.95v-5.41c3.67,0,7.33,0,10.98,0l-.04-.04Z"/>
    <path d="M104.58,102.71c3.71,.01,7.41,.02,11.12,.03l-.04-.03c0,1.79,0,3.58,0,5.43h-11.04c0-1.82,0-3.64,0-5.46l-.04,.04Z"/>
    <path d="M264.56,91.68v-10.95h5.42v10.91h-5.46l.04,.04Z"/>
    <path d="M132.21,235.03h-10.96v-5.43h10.93c0,1.83,0,3.65,0,5.47l.04-.04Z"/>
    <path d="M99.11,179.92c0-1.85,0-3.71,0-5.56l-.03,.04h11.06v5.51l-11.06-.03,.03,.04Z"/>
    <path d="M308.63,135.76v5.45h-10.95v-5.41c3.67,0,7.33,0,10.98,0l-.04-.04Z"/>
    <path d="M132.17,196.42c0,1.85,0,3.71,0,5.56l.03-.04h-11.06l.04,.04-.03-5.55,11.06,.03-.03-.04Z"/>
    <path d="M93.57,124.78h5.48c0,3.72,0,7.39,0,11.07l.03-.04c-1.79,0-3.57,0-5.48,0v-11.07l-.04,.04Z"/>
    <path d="M198.33,58.6h5.51v5.51l.04-.03h-5.55l.04,.04v-5.55l-.04,.03Z"/>
    <path d="M203.85,64.11h5.52c0,1.88,0,3.7,0,5.52l.03-.04h-5.55l.04,.04v-5.55l-.04,.03Z"/>
    <path d="M236.98,75.14v-5.44h5.42v5.4h-5.46l.04,.04Z"/>
    <path d="M258.99,69.62h5.45v5.43h-5.41c0-1.83,0-3.65,0-5.47l-.04,.04Z"/>
    <path d="M236.95,75.1c0,1.86,0,3.71,0,5.57l.03-.04h-5.55l.04,.03v-5.52c1.88,0,3.7,0,5.52,0l-.04-.04Z"/>
    <path d="M248.01,80.66v-5.44h5.48c0,1.81,0,3.63,0,5.44l.03-.04h-5.55l.03,.04Z"/>
    <path d="M220.46,86.09l-5.57,.04,.04,.04v-5.44h5.5c0,1.78,0,3.59,0,5.4l.03-.04Z"/>
    <path d="M137.69,86.13v5.45h-5.43v-5.41c1.83,0,3.65,0,5.47,0l-.04-.04Z"/>
    <path d="M214.89,86.13v5.45h-5.43v-5.41c1.83,0,3.65,0,5.47,0l-.04-.04Z"/>
    <path d="M225.95,91.65h-5.49c0-1.88,0-3.72,0-5.56l-.03,.04c1.84,.01,3.68,.03,5.52,.05l-.03-.04v5.55l.04-.03Z"/>
    <path d="M264.52,91.64c-.01,1.87-.02,3.74-.03,5.6l.03-.04c-1.79,0-3.58,0-5.46,0,0-1.96,0-3.78,0-5.6l-.03,.04c1.84,.01,3.69,.02,5.53,.03l-.04-.04Z"/>
    <path d="M176.32,102.68c-1.85,0-3.71,0-5.56,0l.04,.03v-5.44h5.48v5.44l.04-.03Z"/>
    <path d="M225.95,86.18v-5.52c1.88,0,3.7,0,5.52,0l-.04-.03v5.55l.04-.04h-5.55l.03,.04Z"/>
    <path d="M143.24,58.57h-5.45v-5.43h5.41c0,1.83,0,3.65,0,5.47l.04-.04Z"/>
    <path d="M137.68,102.72c1.87,0,3.73,.02,5.6,.03l-.04-.03c-.01,1.84-.03,3.68-.05,5.52l.04-.03h-5.55l.04,.04v-5.55l-.04,.03Z"/>
    <path d="M143.19,108.23h5.44v5.48c-1.81,0-3.63,0-5.44,0l.04,.03v-5.55l-.04,.03Z"/>
    <path d="M259.04,163.34h-5.52c0-1.88,0-3.7,0-5.52l-.03,.04h5.55l-.04-.04v5.55l.04-.03Z"/>
    <path d="M159.77,179.93v-5.45h5.43v5.41c-1.83,0-3.65,0-5.47,0l.04,.04Z"/>
    <path d="M132.17,179.88c0,1.85,0,3.71,0,5.56l.03-.04-5.55,.03v-5.54l5.55,.03-.03-.04Z"/>
    <path d="M159.77,152.36v-5.45h5.43v5.41c-1.83,0-3.65,0-5.47,0l.04,.04Z"/>
    <path d="M253.47,185.43h5.45v5.43h-5.41c0-1.83,0-3.65,0-5.47l-.04,.04Z"/>
    <path d="M275.57,190.96v-5.45h5.43v5.41c-1.83,0-3.65,0-5.47,0l.04,.04Z"/>
    <path d="M292.06,196.55v5.31h-5.39v-5.31h5.39Z"/>
    <path d="M308.62,157.86h5.45v5.43h-5.41c0-1.83,0-3.65,0-5.47l-.04,.04Z"/>
    <path d="M121.18,207.46h-5.56l.04,.03v-5.51h5.51l-.04-.04v5.55l.04-.03Z"/>
    <path d="M159.8,141.2v-5.31h5.39v5.31h-5.39Z"/>
    <path d="M181.8,212.97c0,1.85,0,3.71,0,5.56l.03-.04-5.55,.03v-5.51h5.55l-.03-.04Z"/>
    <path d="M308.63,213.01h5.44v5.47c-1.82,0-3.63,0-5.44,0l.04,.03v-5.55l-.03,.04Z"/>
    <path d="M214.89,124.73v5.45h-5.43v-5.41c1.83,0,3.65,0,5.47,0l-.04-.04Z"/>
    <path d="M192.83,124.73v5.44h-5.47c0-1.81,0-3.62,0-5.43l-.04,.03h5.55l-.03-.04Z"/>
    <path d="M203.9,207.46h-5.45v-5.43h5.41c0,1.83,0,3.65,0,5.47l.04-.04Z"/>
    <path d="M137.72,130.29v-5.44h5.48c0,1.81,0,3.63,0,5.44l.03-.04h-5.55l.03,.04Z"/>
    <path d="M281.09,135.81v-5.45h5.43v5.41c-1.83,0-3.65,0-5.47,0l.04,.04Z"/>
    <path d="M181.83,124.78v-5.53c1.89,0,3.71,0,5.52,0l-.04-.03v5.55l.04-.03c-1.85,0-3.71,0-5.56,0l.04,.04Z"/>
    <path d="M314.09,235.13v5.34h-5.34v-5.34h5.34Z"/>
    <path d="M159.71,119.31h5.46v5.37h-5.42c0-1.78,0-3.59,0-5.41l-.03,.04Z"/>
    <path d="M154.22,119.23v5.44h-5.42v-5.4h5.46l-.04-.04Z"/>
    <path d="M303.11,207.49h5.52c0,1.88,0,3.7,0,5.52l.03-.04h-5.55l.04,.04v-5.55l-.04,.04Z"/>
    <path d="M121.14,119.26h5.51c0,1.88,0,3.7,0,5.51l.03-.04h-5.55l.04,.04v-5.55l-.03,.04Z"/>
    <path d="M93.61,124.74h-5.45v-5.43h5.41c0,1.83,0,3.65,0,5.47l.04-.04Z"/>
    <path d="M242.5,119.22h-5.52c0-1.88,0-3.7,0-5.52l-.03,.04c1.85-.01,3.7-.02,5.55-.03l-.03,5.55,.04-.03Z"/>
    <path d="M176.26,113.82v5.32h-5.39v-5.32h5.39Z"/>
    <path d="M154.25,119.27v-5.45h5.46c0,1.84,0,3.66,0,5.48l.03-.04c-1.84-.01-3.69-.02-5.53-.03l.04,.04Z"/>
    <path d="M115.66,119.26v-5.49c1.88,0,3.72,0,5.56,0l-.04-.03c-.01,1.84-.03,3.68-.04,5.53l.03-.04h-5.55l.03,.04Z"/>
    <path d="M192.87,268.12c-1.85,0-3.71,0-5.56,0l.04,.03v-5.51h5.51l-.04-.04v5.55l.04-.04Z"/>
    <path d="M225.91,262.6v5.44h-5.48c0-1.81,0-3.63,0-5.44l-.03,.04h5.55l-.04-.04Z"/>
    <path d="M159.73,273.66h5.45v5.43h-5.41c0-1.83,0-3.65,0-5.47l-.04,.04Z"/>
    <path d="M214.98,273.71h5.35v5.35h-5.35v-5.35Z"/>
    <path d="M226.01,273.71h5.35v5.35h-5.35v-5.35Z"/>
    <path d="M253.44,273.72v5.37h-5.35v-5.37h5.35Z"/>
    <path d="M297.6,273.62v5.44h-5.48c0-1.81,0-3.63,0-5.44l-.03,.04h5.55l-.04-.04Z"/>
    <path class="HowestColor-1" d="M225.95,262.64h-5.55v-5.49h-5.44v-5.53h5.36v-11.04h-5.43v-5.5h5.5v-5.57h11.08v11.06h-5.51v22.06Z"/>
    <path class="HowestColor-1" d="M225.91,218.52v-5.5h11.03v-11.08h10.97v11.02h-5.36v5.48h5.37v5.59h-10.98v-5.51h-11.03Z"/>
    <path class="HowestColor-1" d="M286.56,235.11v16.41h-16.45v-16.41h16.45Zm-5.6,10.92v-5.38h-5.3v5.38h5.3Z"/>
    <path class="HowestColor-1" d="M297.64,273.66h-5.55c0-3.68,0-7.35,0-11.03l-.03,.03h11.01v-5.5h5.59v10.98h-11.03v5.51Z"/>
    <path class="HowestColor-1" d="M231.43,229.55v-5.55h5.55v5.55h-5.55Z"/>
    <path class="HowestColor-1" d="M292.13,246.01v-5.38h5.42v5.38h-5.42Z"/>
    <path class="HowestColor-1" d="M292.12,257.12v-5.46h5.43v5.43h-5.46l.03,.03Z"/>
    <path class="HowestColor-1" d="M292.09,257.09c0,1.86-.02,3.71-.03,5.57l.03-.03c-1.84,0-3.68-.02-5.51-.03l.03,.03v-5.51h5.51l-.03-.03Z"/>
    <path class="HowestColor-1" d="M286.58,262.6v5.46h-5.44v-5.43h5.46l-.03-.03Z"/>
    <path class="HowestColor-1" d="M259,163.38v-5.55h5.5v-10.96h5.49v10.99h5.58l-.03-.03v16.58h-11.03v-11.03h-5.51Z"/>
    <path class="HowestColor-1" d="M242.49,113.71c-1.85,.01-3.7,.02-5.55,.03v-11.03h-5.51v-5.55h11.06v5.49h5.48v5.57l.03-.03h-5.54v5.54l.03-.03Z"/>
    <path class="HowestColor-1" d="M259.03,157.86h-5.55v-16.49h5.55v16.49Z"/>
    <path class="HowestColor-1" d="M247.97,80.62h5.55v11.06h-5.55v-11.06Z"/>
    <path class="HowestColor-1" d="M242.46,91.65h5.55v5.55h-5.55v-5.55Z"/>
    <path class="HowestColor-1" d="M275.57,157.86v-5.46h5.44v5.43h-5.46l.03,.03Z"/>
    <path class="HowestColor-1" d="M292.06,157.8v5.48h-5.39v-5.45c1.79,0,3.61,0,5.42,0l-.03-.03Z"/>
    <path class="HowestColor-1" d="M292.09,152.34h5.45v5.46c-1.79,0-3.64,0-5.48,0l.03,.03c0-1.84,.02-3.68,.03-5.52l-.03,.03Z"/>
    <path class="HowestColor-1" d="M242.46,119.26l.03-5.55-.03,.03h5.54l-.03-.03v5.55h-5.52Z"/>
    <path class="HowestColor-1" d="M247.97,108.23h5.46v5.49h-5.46l.03,.03c0-1.85,0-3.7,0-5.54l-.03,.03Z"/>
    <path class="HowestColor-1" d="M165.31,240.52h-5.51v16.53h-5.54v-10.91h-10.99v-5.54h5.39v-5.54h5.54v-5.45h5.54v5.4h5.54c0,1.9,0,3.72,0,5.54l.03-.03Z"/>
    <path class="HowestColor-1" d="M181.83,213.01h-5.55v5.51l.03-.03h-5.54v11.06l.03-.03h-5.49v-11h-5.57v-10.97h5.51v5.36h5.48v-5.45h11.1v5.55Z"/>
    <path class="HowestColor-1" d="M192.86,262.64h-5.51v5.51h-5.49v-5.51h-5.57v-5.5h-5.45v-5.5h10.93v5.42h11.1v5.58Z"/>
    <path class="HowestColor-1" d="M209.4,268.15l-5.55-.03,.03,.03v-5.54h-5.54l.03,.03c-.01-3.69-.02-7.37-.03-11.06h5.5v5.5h5.57v11.08Z"/>
    <path class="HowestColor-1" d="M198.34,246.06c.01,1.85,.02,3.7,.03,5.55h-11.06v-11.06c1.85,.01,3.7,.02,5.55,.03l-.03-.03v5.54h5.54l-.03-.03Z"/>
    <path class="HowestColor-1" d="M176.29,229.52c.01,3.69,.02,7.37,.03,11.06-1.85-.01-3.7-.02-5.55-.03l.03,.03c0-3.69,0-7.37,0-11.06l-.03,.03c1.85,0,3.7,0,5.54,0l-.03-.03Z"/>
    <path class="HowestColor-1" d="M154.22,218.48h5.55v5.46h-5.55v-5.46Z"/>
    <path class="HowestColor-1" d="M143.27,224.05h5.39v5.42h-5.39v-5.42Z"/>
    <path class="HowestColor-1" d="M143.2,213.01v-5.55h5.55v5.55h-5.55Z"/>
    <path class="HowestColor-1" d="M181.8,240.58v-5.46h5.55v5.46h-5.55Z"/>
    <path class="HowestColor-1" d="M170.77,240.55v5.45h-5.46c0-1.79,0-3.64,0-5.48l-.03,.03c1.84,0,3.68,.02,5.52,.03l-.03-.03Z"/>
    <path class="HowestColor-1" d="M176.28,240.54h5.55v5.46h-5.55v-5.46Z"/>
    <path class="HowestColor-1" d="M137.68,218.52v-5.55h5.55v5.55h-5.55Z"/>
    <path class="HowestColor-1" d="M192.83,268.15v-5.55c1.85,.01,3.7,.02,5.55,.03l-.03-.03v5.54l.03-.03-5.55,.03Z"/>
    <path class="HowestColor-1" d="M148.71,212.97h5.55v5.55h-5.55v-5.55Z"/>
    <path class="HowestColor-1" d="M176.28,102.72v-5.44h-5.48v5.44h-11.06v-16.58h5.52v5.46h5.44v-10.89h-5.41v-11.11l-.03,.03h11.02v5.45h5.46v5.54h-5.36v11.07h5.45l-.03-.03v5.54h5.54l-.03-.03v5.55h-11.03Z"/>
    <path class="HowestColor-1" d="M154.26,86.17v-5.5h-11.03v-5.5h-5.47v-5.54h5.44v-5.55h5.5v11.01h11.08v11.09l-5.55-.03,.03,.03Z"/>
    <path class="HowestColor-1" d="M165.28,69.6h-10.97v-5.44h10.94c0,1.82,0,3.64,0,5.46l.03-.03Z"/>
    <path class="HowestColor-1" d="M198.38,58.56v5.55h-5.46v-5.55h5.46Z"/>
    <path class="HowestColor-1" d="M203.89,64.08v5.55h-5.55v-5.55h5.55Z"/>
    <path class="HowestColor-1" d="M203.85,69.59h5.55v5.55h-5.55v-5.55Z"/>
    <path class="HowestColor-1" d="M181.83,91.68v-5.46h5.49v5.46l.03-.03h-5.54l.03,.03Z"/>
    <path class="HowestColor-1" d="M192.86,97.17h-5.54l.03,.03v-5.54l-.03,.03,5.55-.03c-.01,1.85-.02,3.7-.03,5.55l.03-.03Z"/>
    <path class="HowestColor-1" d="M220.43,124.77v-10.97h5.44v10.94h-5.46l.03,.03Z"/>
    <path class="HowestColor-1" d="M220.4,102.68h11.06v5.46h-11.06v-5.46Z"/>
    <path class="HowestColor-1" d="M192.83,97.2h5.46v5.44h-5.43c0-1.82,0-3.64,0-5.46l-.03,.03Z"/>
    <path class="HowestColor-1" d="M187.31,124.77v-5.55h5.55v5.55h-5.55Z"/>
    <path class="HowestColor-1" d="M187.34,113.74v-5.46h5.44v5.43c-1.82,0-3.64,0-5.46,0l.03,.03Z"/>
    <path class="HowestColor-1" d="M209.4,240.58h-5.49v5.48h-5.57l.03,.03v-5.54h-5.54l.03,.03v-5.46h16.55v5.46Z"/>
    <path class="HowestColor-1" d="M176.29,218.52l5.55-.03v11.03h-5.55l.03,.03v-11.06l-.03,.03Z"/>
    <path class="HowestColor-1" d="M198.34,218.52h5.46v5.44h-5.43v-5.46l-.03,.03Z"/>
    <path class="HowestColor-1" d="M214.89,224v5.46h-5.44v-5.43h5.46l-.03-.03Z"/>
    <path class="HowestColor-1" d="M214.92,240.54v5.46h-5.55v-5.46h5.55Z"/>
    <path class="HowestColor-1" d="M93.61,86.09v-27.45h27.48v27.45h-27.48Zm5.54-5.56h16.42v-16.34h-16.42v16.34Z"/>
    <path class="HowestColor-1" d="M281.1,86.09v-27.45h27.48v27.45h-27.48Zm21.99-21.9h-16.42v16.34h16.42v-16.34Z"/>
    <path class="HowestColor-1" d="M93.65,246.1h27.44v27.48h-27.44v-27.48Zm5.49,21.93h16.42v-16.35h-16.42v16.35Z"/>
    <path class="HowestColor-1" d="M132.2,179.92l-5.55-.03,.03,.03v-5.45h-11.06v5.42h-5.51l.03,.03v-5.51h-11.06v-5.5h-5.45v-11.01h10.97v-11.09h5.49v-5.51h5.58v11.02c1.87,0,3.69,0,5.51,0,0,1.82,0,3.64,0,5.47h5.41v-5.43h-5.45v-5.54h11.07v5.5h5.45v5.5h-5.45v22.12Zm-16.46-16.52v5.4h10.83v-5.4h-10.83Zm-5.67,.04h-5.35v5.36h5.35v-5.36Z"/>
    <path class="HowestColor-1" d="M137.68,130.25h5.55v16.58h-11.06v-11h5.51v-5.57Z"/>
    <path class="HowestColor-1" d="M154.23,152.31v5.46h-10.95v-5.43c3.66,0,7.32,0,10.98,0l-.03-.03Z"/>
    <path class="HowestColor-1" d="M308.63,119.23v5.46h-5.44v-5.43h5.46l-.03-.03Z"/>
    <path class="HowestColor-1" d="M154.22,190.91h5.55v5.55h-5.55v-5.55Z"/>
    <path class="HowestColor-1" d="M154.23,86.14v5.46h-5.44v-5.43h5.46l-.03-.03Z"/>
    <path class="HowestColor-1" d="M303.12,212.97h5.55v5.55h-5.55v-5.55Z"/>
    <path class="HowestColor-1" d="M303.15,218.48v5.55h-5.55v-5.55h5.55Z"/>
    <path class="HowestColor-1" d="M303.15,207.46v5.55h-5.55v-5.55h5.55Z"/>
    <path class="HowestColor-1" d="M121.17,201.98h-5.51v5.51h-5.49v5.51h-5.58v-5.49h-5.44v-11.06h5.47l-.03-.03v5.43h5.54v-5.43l-.03,.03h11.06l-.03-.03,.03,5.55Z"/>
    <path class="HowestColor-1" d="M99.08,179.88l11.06,.03-.03-.03v16.57l.03-.03h-5.54l.03,.03v-5.49h-5.55v-11.08Z"/>
    <path class="HowestColor-1" d="M121.17,130.25v5.49h5.44v5.57h-10.99v-11.06h5.55Z"/>
    <path class="HowestColor-1" d="M104.63,146.83h-5.55v-5.55h5.55v5.55Z"/>
    <path class="HowestColor-1" d="M121.14,124.74h5.55v5.55h-5.55v-5.55Z"/>
    <path class="HowestColor-1" d="M115.62,119.22h5.55v5.55h-5.55v-5.55Z"/>
    <path class="HowestColor-1" d="M137.72,102.68v5.55h-5.46v-5.55h5.46Z"/>
    <path class="HowestColor-1" d="M143.23,108.2v5.55h-5.55v-5.55h5.55Z"/>
    <path class="HowestColor-1" d="M231.43,86.17v-5.55h5.55v5.55h-5.55Z"/>
    <path class="HowestColor-1" d="M225.91,86.14h5.55v5.55h-5.55v-5.55Z"/>
    <path class="HowestColor-1" d="M236.94,86.14h5.55v5.55h-5.55v-5.55Z"/>
    <path class="HowestColor-1" d="M121.14,207.49v-5.55h11.06v5.55h-11.06Z"/>
    <path class="HowestColor-1" d="M203.86,268.12v5.46h-5.49v-5.46l-.03,.03h5.54l-.03-.03Z"/>
    <path class="HowestColor-1" d="M126.66,185.43l5.55-.03v11.06l-11.06-.03,.03,.03v-5.57h5.51v-5.49l-.03,.03Z"/>
    <path class="HowestColor-1" d="M126.66,179.89v5.54l.03-.03h-5.46v-5.49h5.46l-.03-.03Z"/>
    <path d="M280.97,246.03h-5.3v-5.38h5.3v5.38Z"/>
    <path d="M248,108.2c0,1.85,0,3.7,0,5.54h-5.54v-5.54h5.54Z"/>
    <path d="M176.31,218.49v11.06c-1.85,0-3.7,0-5.54,0v-11.06h5.54Z"/>
    <path d="M203.89,268.15h-5.54v-5.54h5.54v5.54Z"/>
    <path d="M192.83,240.55h5.54v5.54h-5.54v-5.54Z"/>
    <path d="M187.34,91.65v5.54h-5.54v-5.54h5.54Z"/>
    <path d="M99.15,80.53v-16.34h16.42v16.34h-16.42Z"/>
    <path d="M303.09,64.2v16.34h-16.42v-16.34h16.42Z"/>
    <path d="M99.14,268.03v-16.35h16.42v16.35h-16.42Z"/>
    <path d="M126.68,179.92h-5.46v5.49h5.46v5.49h-5.51v5.57h-11.06v-16.57h5.51v-5.42h11.06v5.45Z"/>
    <path d="M115.74,163.4h10.83v5.4h-10.83v-5.4Z"/>
    <path d="M121.13,152.34h5.45v5.43h-5.41c0-1.83,0-3.65,0-5.47l-.04,.04Z"/>
    <path d="M110.07,163.44v5.36h-5.35v-5.36h5.35Z"/>
    <path d="M104.6,196.43h5.54v5.43h-5.54v-5.43Z"/>
  </g>
  <g>
    <path class="HowestColor-2" d="M224.64,171.29c0-5.23,0-10.47,0-15.7,0-2.48-1.19-3.14-3.32-1.92-6.1,3.46-12.22,6.88-18.32,10.35-.67,.38-1.19,.46-1.91,.05-6.09-3.47-12.22-6.89-18.32-10.35-2.32-1.32-3.6-.58-3.61,2.2-.02,10.12,0,20.23,0,30.35,0,2.58,0,2.58-2.32,1.35-2.32-1.22-4.36-2.71-5.33-5.31-.32-.87-.51-1.75-.51-2.68,0-8.9-.01-17.79,.01-26.69,0-3.11,1.54-5.42,4.16-6.95,7.36-4.32,14.77-8.57,22.16-12.86,3.01-1.75,6.07-1.82,9.07-.11,7.38,4.22,14.72,8.5,22.07,12.75,3.08,1.78,4.53,4.48,4.54,7.99,.01,8.29-.01,16.57,.01,24.86,.01,3.8-1.55,6.62-4.92,8.43-.73,.39-1.44,.83-2.15,1.24-1.15,.66-1.3,.59-1.3-.77-.01-5.41,0-10.81,0-16.22Z"/>
    <path class="HowestColor-2" d="M212.61,189.93c0,1.61-.02,3.23,0,4.84,.01,.77-.22,1.33-.92,1.72-2.01,1.13-3.95,2.41-6.02,3.42-2.57,1.26-5.23,1.21-7.78-.16-1.92-1.03-3.77-2.18-5.68-3.23-.74-.41-1.06-.93-1.05-1.77,.03-3.23,0-6.45,.02-9.68,0-1.3,.22-1.4,1.34-.77,2.67,1.48,5.36,2.91,7.99,4.45,1.03,.6,1.89,.57,2.9-.02,2.45-1.42,4.94-2.77,7.42-4.13,1.76-.96,1.77-.95,1.77,1.01,0,1.44,0,2.88,0,4.31Z"/>
  </g>
  <path class="HowestColor-1" d="M128,334.94c0,2.72-.98,4.87-2.95,6.43s-4.7,2.35-8.21,2.35c-3.71,0-6.57-.49-8.59-1.47v-3.76c1.33,.57,2.78,1.02,4.35,1.35s3.05,.49,4.41,.49c2.34,0,4.1-.45,5.28-1.35s1.77-2.13,1.77-3.7c0-1.04-.21-1.9-.64-2.57s-1.14-1.3-2.15-1.88-2.53-1.25-4.56-1.99c-2.89-1.05-4.96-2.3-6.2-3.73s-1.86-3.28-1.86-5.55c0-2.44,.92-4.37,2.75-5.81s4.24-2.16,7.24-2.16,5.99,.58,8.61,1.75l-1.22,3.38c-2.68-1.11-5.17-1.67-7.48-1.67-1.85,0-3.3,.4-4.35,1.2s-1.57,1.92-1.57,3.36c0,1.03,.2,1.88,.61,2.55,.41,.68,1.06,1.29,1.97,1.85s2.33,1.19,4.26,1.9c2.32,.86,4.05,1.69,5.19,2.49s1.98,1.73,2.52,2.78,.81,2.3,.81,3.75h.01Zm19.69-19.87c-3.36,0-6.01,1.13-7.93,3.38s-2.89,5.33-2.89,9.23,.93,7.14,2.8,9.33,4.52,3.28,7.97,3.28c2.22,0,4.72-.41,7.5-1.24v3.42c-1.33,.48-2.6,.82-3.83,.99s-2.64,.27-4.23,.27c-4.6,0-8.15-1.4-10.63-4.2s-3.73-6.77-3.73-11.9c0-3.22,.59-6.04,1.78-8.46s2.92-4.29,5.19-5.6,4.95-1.97,8.03-1.97c3.31,0,6.18,.61,8.64,1.84l-1.58,3.33c-2.49-1.14-4.86-1.71-7.1-1.71h.01Zm33.88,28.25l-3.76-9.68h-12.4l-3.72,9.68h-3.98l12.21-31.38h3.55l12.18,31.38h-4.08Zm-4.94-13.17l-3.51-9.47-1.5-4.68c-.43,1.71-.88,3.27-1.35,4.68l-3.55,9.47h9.91Zm38.09,13.17h-4.6l-16.74-25.95h-.17l.11,1.73c.17,2.59,.26,4.85,.26,6.75v17.46h-3.63v-31.25h4.55l.96,1.52,10.26,15.86,5.45,8.49h.17c-.03-.34-.09-1.56-.17-3.67s-.13-3.62-.13-4.56v-17.64h3.68v31.25h0Zm33.65,.01l-10.3-27.4h-.17c.21,2.28,.32,5.09,.32,8.44v18.96h-3.63v-31.25h5.81l9.64,25.61h.17l9.81-25.61h5.77v31.25h-3.89v-19.22c0-2.14,.1-4.85,.3-8.14h-.17l-10.43,27.36h-3.23Zm43.39,0h-17.46v-31.25h17.46v3.46h-13.53v9.75h12.74v3.42h-12.74v11.16h13.53v3.46Z"/>
</svg>