<svg id="Layer_1" data-name="Layer 1" xmlns="http://www.w3.org/2000/svg" viewBox="0 0 1920 1080">
  <defs>
    <style>
      .cls-1, .cls-2, .cls-4 {
        fill: #b84626;
      }

      .cls-1, .cls-3, .cls-4 {
        stroke: #000;
        stroke-miterlimit: 10;
      }

      .cls-1, .cls-3 {
        stroke-width: 15px;
      }

      .cls-4 {
        stroke-width: 18px;
      }
    </style>
  </defs>
  <g id="Transfo">
    <g id="a">
      <path id="b" class="cls-1" d="M1719.37,666.08c63.19,0,100.68-48.2,100.68-114.61-1.07-66.4-38.56-114.6-100.68-114.6S1618.69,484,1617.61,550.4C1618.69,617.88,1656.17,666.08,1719.37,666.08Zm0-236.71c69.62,0,107.1,55.7,107.1,121s-37.48,121-107.1,121-108.18-54.63-108.18-121S1648.68,429.37,1719.37,429.37Z"/>
    </g>
    <g id="c">
      <path id="d" class="cls-1" d="M1418.27,542.37h124.24v6.43H1418.27V666.62h-6.43V434.19h143.52v6.43H1418.27Z"/>
    </g>
    <g id="e">
      <path id="f" class="cls-2" d="M1044.15,596.46h171.37l-122.1,312.75,281.69-404.86H1203.74l122.1-312.76Z"/>
    </g>
    <g id="g">
      <path id="h" class="cls-3" d="M824.54,434.19h9.64L993.77,658.05h1.07V434.19h6.42V665.54h-9.64L832,442.76H831V666.62h-6.42Z"/>
    </g>
    <g id="i">
      <path id="j" class="cls-1" d="M720.91,583.61l-55.7-142.46h-1.07L607.38,583.61ZM604.16,590,573.1,666.08h-7.5l95.33-231.35h8.57l92.11,231.35h-7.5L723.05,590Z"/>
    </g>
    <g id="k">
      <path id="l" class="cls-1" d="M344.58,550.94h87.83c34.27,0,66.4-17.14,66.4-57.84,0-33.2-18.21-52.48-63.19-52.48h-91Zm0,114.6h-6.43V434.19h95.33c48.19,0,70.69,19.28,71.76,58.91,1.07,30-17.14,52.48-50.34,60v1.07c39.63,5.36,46.05,26.78,46.05,64.27,0,13.92,1.08,41.77,5.36,48.2h-7.5c-4.28-16.07-5.35-32.14-5.35-48.2,0-37.49-8.57-60-62.13-60H344.58v107.1Z"/>
    </g>
    <g id="m">
      <path id="n" class="cls-4" d="M102.1,441.15v-6.42H276.68v6.42H193.14V666.08h-6.43V441.15Z"/>
    </g>
  </g>
</svg>
